# xmcd
#
# Track frame offsets:
#	150
#	15424
#	35671
#	54407
#	73157
#	93202
#	115849
#	134017
#	158144
#	179489
#	195972
#	211796
#
# Disc length: 3231 seconds
#
# Revision: 0
# Processed by: cddbd v1.5.2PL0 Copyright (c) Steve Scherf et al.
# Submitted via: audiograbber 1.83.01
#
DISCID=9f0c9d0c
DTITLE=Color Indio - Dance Of The Condor
DYEAR=2002
DGENRE=Pop
TTITLE0=Andes Flute Player
TTITLE1=Dawa
TTITLE2=Sancoco
TTITLE3=Spring Melody
TTITLE4=Phalawatas
TTITLE5=El Condor Pasa
TTITLE6=Far Away From You
TTITLE7=Axtuleman Xumi
TTITLE8=Kullanatajispi
TTITLE9=Storm
TTITLE10=Huascar
TTITLE11=Tamya
EXTD=
EXTT0=
EXTT1=
EXTT2=
EXTT3=
EXTT4=
EXTT5=
EXTT6=
EXTT7=
EXTT8=
EXTT9=
EXTT10=
EXTT11=
PLAYORDER=
